<svg xmlns="http://www.w3.org/2000/svg" version="1.1" xmlns:xlink="http://www.w3.org/1999/xlink" width="1000" height="1000"><g clip-path="url(#SvgjsClipPath1226)"><rect width="1000" height="1000" fill="#ffffff"></rect><g transform="matrix(4.5,0,0,4.5,50,50)"><svg xmlns="http://www.w3.org/2000/svg" version="1.1" xmlns:xlink="http://www.w3.org/1999/xlink" width="200" height="200"><svg xmlns="http://www.w3.org/2000/svg" version="1.1" xmlns:xlink="http://www.w3.org/1999/xlink" viewBox="0 0 200 200"><rect width="200" height="200" fill="url('#gradient')"></rect><defs><linearGradient id="gradient" gradientTransform="rotate(54 0.5 0.5)"><stop offset="0%" stop-color="#ffffff"></stop><stop offset="100%" stop-color="#ffffff"></stop></linearGradient><clipPath id="SvgjsClipPath1226"><rect width="1000" height="1000" x="0" y="0" rx="500" ry="500"></rect></clipPath></defs><g><g fill="#5790db" transform="matrix(5.1399888455103175,0,0,5.1399888455103175,4.4950217106989925,136.08420599151842)" stroke="#000000" stroke-width="0.55"><path d="M12.96-14.22L12.96 0L9.55 0L9.55-5.94L4.50-5.94L4.50 0L1.07 0L1.07-14.22L4.50-14.22L4.50-8.57L9.55-8.57L9.55-14.22L12.96-14.22ZM24.16-14.22L26.14-5.30L27.77-14.22L31.17-14.22L28.15 0L24.60 0L22.70-8.11L20.83 0L17.29 0L14.26-14.22L17.67-14.22L19.30-5.30L21.25-14.22L24.16-14.22ZM36.04-14.22L35.63-4.50L32.96-4.50L32.54-14.22L36.04-14.22ZM32.44-1.47L32.44-1.47Q32.44-2.20 32.96-2.66Q33.49-3.13 34.27-3.13Q35.05-3.13 35.57-2.66Q36.09-2.20 36.09-1.47Q36.09-0.75 35.57-0.29Q35.05 0.18 34.27 0.18Q33.49 0.18 32.96-0.29Q32.44-0.75 32.44-1.47Z"></path></g></g></svg></svg></g></g></svg>